<mxfile host="app.diagrams.net" agent="Mozilla/5.0 (Windows NT 10.0; Win64; x64) AppleWebKit/537.36 (KHTML, like Gecko) Chrome/141.0.0.0 Safari/537.36" version="28.2.7">
  <diagram name="System Context Diagram" id="system-context">
    <mxGraphModel dx="1042" dy="562" grid="1" gridSize="10" guides="1" tooltips="1" connect="1" arrows="1" fold="1" page="1" pageScale="1" pageWidth="850" pageHeight="1100" math="0" shadow="0">
      <root>
        <mxCell id="0" />
        <mxCell id="1" parent="0" />
        <mxCell id="2" value="Frontend&#xa;(AIBot_UI.py / Streamlit)" style="shape=rectangle;fillColor=#dae8fc;" parent="1" vertex="1">
          <mxGeometry x="150" y="150" width="140" height="60" as="geometry" />
        </mxCell>
        <mxCell id="3" value="Backend&#xa;(backend.py)" style="shape=rectangle;fillColor=#d5e8d4;" parent="1" vertex="1">
          <mxGeometry x="370" y="150" width="180" height="60" as="geometry" />
        </mxCell>
        <mxCell id="NBuVxZrh4ZRBiwS4PcDk-13" style="edgeStyle=orthogonalEdgeStyle;rounded=0;orthogonalLoop=1;jettySize=auto;html=1;entryX=0;entryY=0.5;entryDx=0;entryDy=0;" edge="1" parent="1" source="4" target="NBuVxZrh4ZRBiwS4PcDk-12">
          <mxGeometry relative="1" as="geometry" />
        </mxCell>
        <mxCell id="4" value="LangChain Agent&#xa;(AIBot.py)" style="shape=rectangle;fillColor=#fff2cc;" parent="1" vertex="1">
          <mxGeometry x="610" y="150" width="160" height="60" as="geometry" />
        </mxCell>
        <mxCell id="5" value="Tool&#xa;RAG Retriever" style="shape=rectangle;fillColor=#f8cecc;" parent="1" vertex="1">
          <mxGeometry x="600" y="40" width="180" height="60" as="geometry" />
        </mxCell>
        <mxCell id="6" value="FAISS Vector Store" style="shape=rectangle;fillColor=#e1d5e7;" parent="1" vertex="1">
          <mxGeometry x="370" y="40" width="180" height="60" as="geometry" />
        </mxCell>
        <mxCell id="7" value="Ingestion Service&#xa;(ingest.py)" style="shape=rectangle;fillColor=#f5f5f5;" parent="1" vertex="1">
          <mxGeometry x="150" y="40" width="160" height="60" as="geometry" />
        </mxCell>
        <mxCell id="8" value="Config File&#xa;(config.py)" style="shape=rectangle;fillColor=#f5f5f5;" parent="1" vertex="1">
          <mxGeometry x="620" y="260" width="140" height="60" as="geometry" />
        </mxCell>
        <mxCell id="9" value="Dockerfile" style="shape=rectangle;fillColor=#d5e8d4;" parent="1" vertex="1">
          <mxGeometry x="390" y="250" width="140" height="60" as="geometry" />
        </mxCell>
        <mxCell id="e1" style="endArrow=block;" parent="1" source="2" target="3" edge="1">
          <mxGeometry relative="1" as="geometry" />
        </mxCell>
        <mxCell id="e2" style="endArrow=block;" parent="1" source="3" target="4" edge="1">
          <mxGeometry relative="1" as="geometry" />
        </mxCell>
        <mxCell id="e3" style="endArrow=block;" parent="1" source="4" target="5" edge="1">
          <mxGeometry relative="1" as="geometry" />
        </mxCell>
        <mxCell id="e4" style="endArrow=block;" parent="1" source="5" target="6" edge="1">
          <mxGeometry relative="1" as="geometry" />
        </mxCell>
        <mxCell id="e5" style="endArrow=block;" parent="1" source="7" target="6" edge="1">
          <mxGeometry relative="1" as="geometry" />
        </mxCell>
        <mxCell id="e6" style="endArrow=block;" parent="1" source="8" target="4" edge="1">
          <mxGeometry relative="1" as="geometry" />
        </mxCell>
        <mxCell id="e7" style="endArrow=block;" parent="1" source="9" target="3" edge="1">
          <mxGeometry relative="1" as="geometry" />
        </mxCell>
        <mxCell id="NBuVxZrh4ZRBiwS4PcDk-10" style="edgeStyle=orthogonalEdgeStyle;rounded=0;orthogonalLoop=1;jettySize=auto;html=1;entryX=0;entryY=0.5;entryDx=0;entryDy=0;" edge="1" parent="1" source="NBuVxZrh4ZRBiwS4PcDk-9" target="7">
          <mxGeometry relative="1" as="geometry" />
        </mxCell>
        <mxCell id="NBuVxZrh4ZRBiwS4PcDk-11" style="edgeStyle=orthogonalEdgeStyle;rounded=0;orthogonalLoop=1;jettySize=auto;html=1;entryX=0;entryY=0.5;entryDx=0;entryDy=0;" edge="1" parent="1" source="NBuVxZrh4ZRBiwS4PcDk-9" target="2">
          <mxGeometry relative="1" as="geometry" />
        </mxCell>
        <mxCell id="NBuVxZrh4ZRBiwS4PcDk-9" value="" style="shape=actor;whiteSpace=wrap;html=1;" vertex="1" parent="1">
          <mxGeometry x="20" y="90" width="40" height="60" as="geometry" />
        </mxCell>
        <mxCell id="NBuVxZrh4ZRBiwS4PcDk-12" value="Tool&#xa;USGS API" style="shape=rectangle;fillColor=#f8cecc;" vertex="1" parent="1">
          <mxGeometry x="840" y="40" width="180" height="60" as="geometry" />
        </mxCell>
        <mxCell id="NBuVxZrh4ZRBiwS4PcDk-14" value="" style="aspect=fixed;sketch=0;html=1;dashed=0;whitespace=wrap;verticalLabelPosition=bottom;verticalAlign=top;fillColor=#2875E2;strokeColor=#ffffff;points=[[0.005,0.63,0],[0.1,0.2,0],[0.9,0.2,0],[0.5,0,0],[0.995,0.63,0],[0.72,0.99,0],[0.5,1,0],[0.28,0.99,0]];shape=mxgraph.kubernetes.icon2;kubernetesLabel=1;prIcon=api" vertex="1" parent="1">
          <mxGeometry x="898.75" y="150" width="62.5" height="60" as="geometry" />
        </mxCell>
        <mxCell id="NBuVxZrh4ZRBiwS4PcDk-15" style="edgeStyle=orthogonalEdgeStyle;rounded=0;orthogonalLoop=1;jettySize=auto;html=1;entryX=0.5;entryY=0;entryDx=0;entryDy=0;entryPerimeter=0;" edge="1" parent="1" source="NBuVxZrh4ZRBiwS4PcDk-12" target="NBuVxZrh4ZRBiwS4PcDk-14">
          <mxGeometry relative="1" as="geometry" />
        </mxCell>
      </root>
    </mxGraphModel>
  </diagram>
</mxfile>
